<svg width="38" height="39" viewBox="0 0 38 39" fill="none" xmlns="http://www.w3.org/2000/svg">
<g clip-path="url(#clip0_2203_43)">
<path d="M12.7101 30.3331C12.7101 30.4863 12.5339 30.6089 12.3117 30.6089C12.0589 30.6319 11.8827 30.5093 11.8827 30.3331C11.8827 30.1798 12.0589 30.0573 12.281 30.0573C12.5109 30.0343 12.7101 30.1569 12.7101 30.3331ZM10.3274 29.9883C10.2738 30.1415 10.427 30.3177 10.6569 30.3637C10.856 30.4403 11.0859 30.3637 11.1319 30.2105C11.1778 30.0573 11.0323 29.8811 10.8024 29.8121C10.6032 29.7585 10.381 29.8351 10.3274 29.9883ZM13.7137 29.8581C13.4915 29.9117 13.3383 30.0573 13.3613 30.2335C13.3843 30.3867 13.5835 30.4863 13.8133 30.4327C14.0355 30.379 14.1887 30.2335 14.1657 30.0802C14.1427 29.9347 13.9359 29.8351 13.7137 29.8581ZM18.7548 0.5C8.12863 0.5 0 8.56734 0 19.1935C0 27.6899 5.34758 34.9605 12.9859 37.5194C13.9665 37.6956 14.3113 37.0903 14.3113 36.5923C14.3113 36.1173 14.2883 33.4972 14.2883 31.8883C14.2883 31.8883 8.9254 33.0375 7.79919 29.6052C7.79919 29.6052 6.92581 27.3758 5.66935 26.8012C5.66935 26.8012 3.91492 25.5984 5.79194 25.6214C5.79194 25.6214 7.6996 25.7746 8.74919 27.598C10.427 30.5552 13.2387 29.7048 14.3343 29.1992C14.5105 27.9734 15.0085 27.123 15.5601 26.6173C11.2774 26.1423 6.95645 25.5218 6.95645 18.1516C6.95645 16.0448 7.53871 14.9875 8.76452 13.6391C8.56532 13.1411 7.91411 11.0879 8.96371 8.4371C10.5649 7.93911 14.25 10.5056 14.25 10.5056C15.7823 10.0766 17.4294 9.85444 19.0613 9.85444C20.6931 9.85444 22.3403 10.0766 23.8726 10.5056C23.8726 10.5056 27.5577 7.93145 29.1589 8.4371C30.2085 11.0956 29.5573 13.1411 29.3581 13.6391C30.5839 14.9952 31.3347 16.0524 31.3347 18.1516C31.3347 25.5448 26.8222 26.1347 22.5395 26.6173C23.2444 27.2226 23.8419 28.3718 23.8419 30.1722C23.8419 32.754 23.819 35.9488 23.819 36.577C23.819 37.075 24.1714 37.6802 25.1444 37.504C32.8056 34.9605 38 27.6899 38 19.1935C38 8.56734 29.381 0.5 18.7548 0.5ZM7.44677 26.9238C7.34718 27.0004 7.37016 27.1766 7.5004 27.3222C7.62298 27.4448 7.79919 27.4984 7.89879 27.3988C7.99839 27.3222 7.9754 27.146 7.84516 27.0004C7.72258 26.8778 7.54637 26.8242 7.44677 26.9238ZM6.61936 26.3032C6.56573 26.4028 6.64234 26.5254 6.79556 26.602C6.91815 26.6786 7.07137 26.6556 7.125 26.5484C7.17863 26.4488 7.10202 26.3262 6.94879 26.2496C6.79556 26.2036 6.67298 26.2266 6.61936 26.3032ZM9.10161 29.0306C8.97903 29.1302 9.025 29.3601 9.20121 29.5056C9.37742 29.6819 9.5996 29.7048 9.69919 29.5823C9.79879 29.4827 9.75282 29.2528 9.5996 29.1073C9.43105 28.931 9.20121 28.9081 9.10161 29.0306ZM8.22823 27.9044C8.10565 27.9811 8.10565 28.1802 8.22823 28.3565C8.35081 28.5327 8.55766 28.6093 8.65726 28.5327C8.77984 28.4331 8.77984 28.2339 8.65726 28.0577C8.55 27.8815 8.35081 27.8048 8.22823 27.9044Z" fill="#EEE9E1"/>
</g>
<defs>
<clipPath id="clip0_2203_43">
<rect width="38" height="38" fill="white" transform="translate(0 0.5)"/>
</clipPath>
</defs>
</svg>
