<svg width="38" height="39" viewBox="0 0 38 39" fill="none" xmlns="http://www.w3.org/2000/svg">
<g clip-path="url(#clip0_2203_47)">
<path d="M35.2857 0.5H2.7058C1.21295 0.5 0 1.72991 0 3.23973V35.7603C0 37.2701 1.21295 38.5 2.7058 38.5H35.2857C36.7786 38.5 38 37.2701 38 35.7603V3.23973C38 1.72991 36.7786 0.5 35.2857 0.5ZM11.4848 33.0714H5.85268V14.9366H11.4933V33.0714H11.4848ZM8.66875 12.4598C6.86205 12.4598 5.40312 10.9924 5.40312 9.1942C5.40312 7.39598 6.86205 5.92857 8.66875 5.92857C10.467 5.92857 11.9344 7.39598 11.9344 9.1942C11.9344 11.0009 10.4754 12.4598 8.66875 12.4598ZM32.5969 33.0714H26.9647V24.25C26.9647 22.1464 26.9223 19.4406 24.0384 19.4406C21.1036 19.4406 20.654 21.7308 20.654 24.0973V33.0714H15.0219V14.9366H20.425V17.4134H20.5013C21.2562 15.9884 23.0969 14.4871 25.8366 14.4871C31.5366 14.4871 32.5969 18.2446 32.5969 23.1304V33.0714Z" fill="#EEE9E1"/>
</g>
<defs>
<clipPath id="clip0_2203_47">
<rect width="38" height="38" fill="white" transform="translate(0 0.5)"/>
</clipPath>
</defs>
</svg>
