<svg width="30" height="35" viewBox="0 0 30 35" fill="none" xmlns="http://www.w3.org/2000/svg">
<g clip-path="url(#clip0_2203_86)">
<mask id="mask0_2203_86" style="mask-type:luminance" maskUnits="userSpaceOnUse" x="0" y="0" width="30" height="35">
<path d="M30 0.5H0V34.5H30V0.5Z" fill="white"/>
</mask>
<g mask="url(#mask0_2203_86)">
<mask id="mask1_2203_86" style="mask-type:luminance" maskUnits="userSpaceOnUse" x="0" y="0" width="30" height="35">
<path d="M30 0.5H0V34.5H30V0.5Z" fill="white"/>
</mask>
<g mask="url(#mask1_2203_86)">
<path d="M18.1426 8.5H12.5703L12.6055 12.6133H18.1426C19.5254 12.6133 20.6914 12.9238 21.6406 13.5449C22.5898 14.1777 23.3047 15.0977 23.7852 16.3047C24.2773 17.5117 24.5234 18.9707 24.5234 20.6816V21.9297C24.5234 23.2422 24.3828 24.3965 24.1016 25.3926C23.832 26.3887 23.4277 27.2266 22.8887 27.9062C22.3496 28.5859 21.6875 29.0957 20.9023 29.4355C20.1172 29.7871 19.2148 29.9629 18.1953 29.9629H12.4648V34.0937H18.1953C19.9062 34.0937 21.4707 33.8008 22.8887 33.2148C24.3184 32.6406 25.5547 31.8145 26.5977 30.7363C27.6406 29.6582 28.4434 28.3691 29.0059 26.8691C29.5801 25.3809 29.8672 23.7227 29.8672 21.8945V20.6816C29.8672 18.8652 29.5801 17.207 29.0059 15.707C28.4434 14.207 27.6406 12.918 26.5977 11.8398C25.5664 10.7734 24.3301 9.94726 22.8887 9.36133C21.459 8.78711 19.877 8.5 18.1426 8.5ZM15.5586 34.0937V8.5H10.2852V34.0937H15.5586Z" fill="#181D29"/>
<path d="M15.9941 7.5H10.4219L10.457 11.6133H15.9941C17.377 11.6133 18.543 11.9238 19.4922 12.5449C20.4414 13.1777 21.1562 14.0977 21.6367 15.3047C22.1289 16.5117 22.375 17.9707 22.375 19.6816V20.9297C22.375 22.2422 22.2344 23.3965 21.9531 24.3926C21.6836 25.3887 21.2793 26.2266 20.7402 26.9062C20.2012 27.5859 19.5391 28.0957 18.7539 28.4355C17.9687 28.7871 17.0664 28.9629 16.0469 28.9629H10.3164V33.0937H16.0469C17.7578 33.0937 19.3223 32.8008 20.7402 32.2148C22.1699 31.6406 23.4062 30.8145 24.4492 29.7363C25.4922 28.6582 26.2949 27.3691 26.8574 25.8691C27.4316 24.3809 27.7187 22.7227 27.7187 20.8945V19.6816C27.7187 17.8652 27.4316 16.207 26.8574 14.707C26.2949 13.207 25.4922 11.918 24.4492 10.8398C23.418 9.77344 22.1816 8.94726 20.7402 8.36133C19.3105 7.78711 17.7285 7.5 15.9941 7.5ZM13.4102 33.0937V7.5H8.13672V33.0937H13.4102Z" fill="#EEE9E1"/>
<path d="M18.7383 5.61328V1.5H5.85352V5.61328H18.7383ZM7.5586 27.0937V1.5H2.28516L2.28517 27.0937H7.5586Z" fill="#181D29"/>
<path d="M16.7383 4.61328V0.5L3.85351 0.500001V4.61328H16.7383ZM5.55859 26.0937V0.500001L0.285156 0.500001L0.285159 26.0937H5.55859Z" fill="#A196DF"/>
</g>
</g>
</g>
<defs>
<clipPath id="clip0_2203_86">
<rect width="30" height="34" fill="white" transform="translate(0 0.5)"/>
</clipPath>
</defs>
</svg>
